Coordinates
version=1
nRows=12
nColumns=24
inDegrees=yes

Units are S.I. units (second, meters, Newtons, ...)
Angles are in degrees.

endheader
time	pelvis_tilt	pelvis_list	pelvis_rotation	pelvis_tx	pelvis_ty	pelvis_tz	hip_flexion_r	hip_adduction_r	hip_rotation_r	knee_angle_r	ankle_angle_r	subtalar_angle_r	mtp_angle_r	hip_flexion_l	hip_adduction_l	hip_rotation_l	knee_angle_l	ankle_angle_l	subtalar_angle_l	mtp_angle_l	lumbar_extension	lumbar_bending	lumbar_rotation
      7.27000000	     -3.20234560	     -0.21672804	      4.48913240	      1.33863696	      0.67146101	     -0.22369277	     16.35669146	      2.96998352	     -2.47632991	    -14.90660523	      8.70578870	    -14.46640747	      0.00000000	      8.62495455	      0.03584908	     -1.86451079	    -58.50448283	    -11.73773607	    -23.97546606	      0.00000000	    -16.79542395	     -1.66984009	     -6.83580968
      7.28000000	     -3.22625542	      0.01645053	      4.17965982	      1.34665904	      0.67254913	     -0.22200351	     15.50699026	      2.99879991	     -2.22156117	    -14.66242955	      9.34088652	    -14.18767556	      0.00000000	     10.33336811	      0.52963003	     -1.84831954	    -60.04673931	     -9.46261364	    -22.99899930	      0.00000000	    -16.89949565	     -2.08605979	     -6.52816575
      7.29000000	     -3.23313531	      0.24341364	      3.87777624	      1.35461127	      0.67356117	     -0.22036610	     14.62642145	      3.02905507	     -1.93999242	    -14.37300356	      9.89925405	    -14.01428278	      0.00000000	     11.98956243	      1.01839173	     -1.80457849	    -61.26139525	     -7.41379781	    -22.17763072	      0.00000000	    -16.99098777	     -2.49381092	     -6.23372500
      7.30000000	     -3.23002741	      0.47037219	      3.57255091	      1.36248233	      0.67448395	     -0.21877751	     13.73580769	      3.05487072	     -1.61117386	    -14.06728084	     10.42240424	    -13.91696667	      0.00000000	     13.59361019	      1.49783987	     -1.76192726	    -62.14457622	     -5.73720526	    -21.73595509	      0.00000000	    -17.06873682	     -2.90201645	     -5.93070684
      7.31000000	     -3.20986560	      0.66206131	      3.28865807	      1.37029703	      0.67531361	     -0.21726413	     12.82505145	      3.09796400	     -1.34653771	    -13.73252682	     10.92057761	    -13.87317923	      0.00000000	     15.13701564	      1.91216642	     -1.72694636	    -62.71046830	     -4.34035709	    -21.69584147	      0.00000000	    -17.13601690	     -3.25447454	     -5.63360594
      7.32000000	     -3.12773716	      0.83191449	      3.06917689	      1.37802049	      0.67610248	     -0.21587230	     11.85740616	      3.13693990	     -1.16949268	    -13.39611090	     11.27716109	    -13.86658910	      0.00000000	     16.56419001	      2.30541770	     -1.62752305	    -62.94321253	     -3.29296952	    -22.29192841	      0.00000000	    -17.26829036	     -3.55953436	     -5.42694399
      7.33000000	     -3.14236188	      1.04443994	      2.74162238	      1.38564216	      0.67672245	     -0.21440627	     11.03152630	      3.14357942	     -0.83992404	    -13.11800328	     11.77460259	    -13.83173073	      0.00000000	     18.02573230	      2.65437345	     -1.69720624	    -62.83882259	     -2.21241402	    -22.78283586	      0.00000000	    -17.29023961	     -3.95719834	     -5.06091033
      7.34000000	     -3.12653133	      1.24059681	      2.47601465	      1.39316035	      0.67727870	     -0.21305573	     10.20028653	      3.13858691	     -0.62355047	    -12.86923581	     12.18493120	    -13.82934393	      0.00000000	     19.39383950	      2.96180329	     -1.72975647	    -62.40129564	     -1.23612697	    -23.53847378	      0.00000000	    -17.35593944	     -4.30561099	     -4.79352349
      7.35000000	     -3.14164091	      1.48304971	      2.18554324	      1.40056878	      0.67774874	     -0.21172743	      9.43707578	      3.08219622	     -0.33587902	    -12.67871831	     12.61336865	    -13.82949737	      0.00000000	     20.70145369	      3.27554395	     -1.80617793	    -61.58119043	     -0.43189971	    -24.44389846	      0.00000000	    -17.41270760	     -4.71960840	     -4.47227320
      7.36000000	     -3.16828226	      1.75085029	      1.90141564	      1.40786569	      0.67814937	     -0.21047109	      8.71190106	      2.98515040	     -0.04348057	    -12.51697425	     13.01098770	    -13.84267825	      0.00000000	     21.91773589	      3.59158001	     -1.87460114	    -60.36990304	      0.14975520	    -25.51173173	      0.00000000	    -17.48054629	     -5.14771197	     -4.14996454
      7.37000000	     -3.19230403	      2.00549995	      1.62616983	      1.41507789	      0.67846556	     -0.20926439	      8.00217859	      2.88934221	      0.21638093	    -12.36628595	     13.37510047	    -13.89113502	      0.00000000	     23.02257813	      3.85318882	     -1.95226110	    -58.79050620	      0.58872429	    -26.64412765	      0.00000000	    -17.57990988	     -5.55238611	     -3.86204080
      7.38000000	     -3.21276163	      2.24698210	      1.33395770	      1.42221681	      0.67869805	     -0.20806872	      7.31521468	      2.80207113	      0.47663678	    -12.24501820	     13.72603355	    -13.95956298	      0.00000000	     23.99335109	      4.05110112	     -2.06519540	    -56.82409154	      0.83059160	    -27.84149273	      0.00000000	    -17.69766460	     -5.95292611	     -3.58315063
